<svg width="20" height="20" xmlns="http://www.w3.org/2000/svg">
 <title/>
 <desc/>

 <g>
  <title>background</title>
  <rect fill="none" id="canvas_background" height="402" width="582" y="-1" x="-1"/>
 </g>
 <g>
  <title>Layer 1</title>
  <path fill="#ffffff" id="Shape" d="m6,16c-1.100006,0 -2,0.899994 -2,2c0,1.100006 0.899994,2 2,2c1.100006,0 2,-0.899994 2,-2c0,-1.100006 -0.899994,-2 -2,-2l0,0zm-6,-16l0,2l2,0l3.600006,7.600006l-1.400009,2.399994c-0.099991,0.299988 -0.199997,0.700012 -0.199997,1c0,1.100006 0.899994,2 2,2l12,0l0,-2l-11.600006,0c-0.099991,0 -0.199997,-0.100006 -0.199997,-0.200012l0,-0.099976l0.900009,-1.700012l7.399994,0c0.800003,0 1.399994,-0.399994 1.699997,-1l3.600006,-6.5c0.199997,-0.200012 0.199997,-0.299988 0.199997,-0.5c0,-0.600006 -0.399994,-1 -1,-1l-14.800003,0l-0.899994,-2l-3.300003,0l0,0zm16,16c-1.100006,0 -2,0.899994 -2,2c0,1.100006 0.899994,2 2,2c1.100006,0 2,-0.899994 2,-2c0,-1.100006 -0.899994,-2 -2,-2l0,0z"/>
 </g>
</svg>